<svg version="1.2" xmlns="http://www.w3.org/2000/svg" viewBox="0 0 512 512" width="64" height="64">
	<title>user</title>
	<style>
		.s0 { fill: #FFFFFF } 
	</style>
	<path id="Path 0" class="s0" d="m252 0.1c8 0 16.1 0.3 18 0.8c1.9 0.6 6.2 1.5 9.5 2.1c3.3 0.7 9.6 2.5 14 4c4.4 1.5 10.5 4 13.5 5.5c3 1.5 8.4 4.7 12 7.1c3.6 2.3 9.9 7.2 14 10.7c4.1 3.6 9.5 8.9 12 11.8c2.5 3 5.9 7.2 7.6 9.4c1.7 2.2 4.5 6.4 6.2 9.3c1.8 2.8 5 9.4 7.1 14.4c2.2 5.1 4.9 12.9 6 17.3c1.1 4.4 2.4 13 3 19c0.7 7.4 0.7 14.8 0 22.5c-0.5 6.3-1.6 14.4-2.5 18c-0.8 3.6-2.6 9.7-4 13.5c-1.4 3.8-4.4 10.6-6.7 15c-2.3 4.4-6.3 10.9-9 14.5c-2.6 3.6-8.2 10-12.5 14.4c-4.2 4.3-11.1 10.4-15.2 13.5c-4.1 3.1-11.1 7.5-15.5 9.8c-4.4 2.3-11.1 5.3-15 6.7c-3.9 1.3-10.1 3.2-14 4.1c-3.9 0.9-11.7 2-17.5 2.4c-5.8 0.5-15.4 0.5-21.5 0c-6.1-0.5-15.3-1.9-20.5-3.3c-5.2-1.3-13.3-4.1-18-6.1c-4.7-2.1-12.8-6.6-18-10.1c-5.2-3.4-13.3-9.9-18-14.5c-4.7-4.6-10.6-11.1-13.2-14.4c-2.5-3.3-6.7-9.8-9.4-14.5c-2.7-4.7-6.6-13.4-8.6-19.5c-2.2-6.3-4.4-15.9-5.4-22.5c-1.1-8-1.5-15-1.1-23c0.3-6.3 1.3-15.1 2.2-19.5c0.9-4.4 2.8-11.4 4.2-15.5c1.4-4.1 3.9-10.2 5.5-13.5c1.7-3.3 5.4-9.6 8.3-14c2.9-4.4 8.8-11.8 13.1-16.4c4.4-4.6 11.7-11.3 16.4-14.8c4.7-3.5 13-8.6 18.5-11.4c5.5-2.8 12.9-5.9 16.5-7c3.6-1 10.3-2.8 15-3.8c6-1.3 12.8-1.9 23-2zm-99.5 247c1.1 0 4.3 0.5 7 1.2c3.2 0.8 11.4 5.3 22.5 12.3c9.6 6.1 19.1 11.9 21 12.9c1.9 1 8.2 3.5 14 5.6c5.8 2 14.3 4.4 19 5.3c4.7 0.9 13.6 1.7 20 1.7c7.9 0 14.4-0.6 21-2.1c5.2-1.1 13.8-3.6 19-5.6c5.2-2 11.1-4.4 13-5.4c1.9-1 9.8-5.8 17.5-10.7c7.7-5 16.3-10.2 19-11.5c2.8-1.4 6.5-2.8 8.3-3.2c1.7-0.3 7.8-0.1 13.4 0.5c5.7 0.6 14.1 2.2 18.8 3.6c4.7 1.3 11.9 4.2 16 6.4c4.1 2.1 10.6 6.3 14.4 9.2c3.8 2.8 9.4 8.1 12.5 11.7c3 3.6 7.3 9.4 9.6 13c2.4 3.6 5.8 9.6 7.8 13.5c1.9 3.9 5 11.1 6.9 16c2 4.9 4.9 14.6 6.6 21.5c1.7 6.9 4 18.1 5.1 25c1.1 6.9 2.2 15.4 2.6 19c0.3 3.6 1 13.4 1.5 21.8c0.8 12.1 0.7 17.5-0.5 26.5c-0.8 6.1-2.4 14.3-3.6 18.2c-1.2 3.9-3.6 9.9-5.4 13.5c-1.8 3.6-5.7 9.5-8.6 13.3c-3 3.7-8.5 9.3-12.4 12.4c-3.9 3.1-11.1 7.5-16 9.9c-4.9 2.3-12.8 5.3-26 8.9l-137 0.3c-102.1 0.3-138.8 0-144-0.9c-3.8-0.6-10.6-2.3-15-3.6c-4.4-1.4-10.7-3.9-14-5.6c-3.3-1.6-8.3-4.7-11-6.7c-2.8-2-8.2-7-12-11.1c-5-5.4-8.3-10.1-11.7-16.9c-2.6-5.2-5.4-12.2-6.3-15.5c-0.8-3.3-1.9-9.1-2.5-13c-0.5-3.9-1-11.9-1-18c0-6.1 0.5-17.3 1-25c0.6-7.7 2-19.9 3.1-27c1.2-7.1 3.6-18.9 5.4-26c1.8-7.1 5.2-17.7 7.4-23.5c2.2-5.8 6.4-14.6 9.2-19.5c2.8-4.9 7.2-11.7 9.8-15c2.5-3.3 7-8.3 9.8-11.2c2.9-2.9 8.1-7.2 11.5-9.5c3.5-2.3 9.5-5.6 13.3-7.4c3.8-1.8 10.4-4.2 14.5-5.3c4.1-1.2 11.1-2.5 15.5-3c4.4-0.4 8.9-0.9 10-1z" />
</svg>